<mxfile host="app.diagrams.net" modified="2024-02-14T14:55:54.980Z" agent="Mozilla/5.0 (Macintosh; Intel Mac OS X 10_15_7) AppleWebKit/537.36 (KHTML, like Gecko) Chrome/120.0.0.0 Safari/537.36" etag="x5jwk6DUbzWOF4TDyZ2j" version="23.1.4" type="device">
  <diagram name="Page-1" id="yVhtfVa1jiW_yKxeGQw9">
    <mxGraphModel dx="1382" dy="1876" grid="1" gridSize="10" guides="1" tooltips="1" connect="1" arrows="1" fold="1" page="1" pageScale="1" pageWidth="827" pageHeight="1169" math="0" shadow="0">
      <root>
        <mxCell id="0" />
        <mxCell id="1" parent="0" />
        <mxCell id="LUY3sZnG4IFYLeTd67n9-1" value="Page is launched" style="rounded=1;whiteSpace=wrap;html=1;" parent="1" vertex="1">
          <mxGeometry x="369" y="-1160" width="120" height="40" as="geometry" />
        </mxCell>
        <mxCell id="LUY3sZnG4IFYLeTd67n9-2" value="Search &lt;br&gt;starts from the main &lt;br&gt;bar" style="rhombus;whiteSpace=wrap;html=1;" parent="1" vertex="1">
          <mxGeometry x="369" y="-930" width="120" height="80" as="geometry" />
        </mxCell>
        <mxCell id="LUY3sZnG4IFYLeTd67n9-3" value="" style="endArrow=classic;html=1;rounded=0;exitX=1;exitY=0.5;exitDx=0;exitDy=0;" parent="1" source="LUY3sZnG4IFYLeTd67n9-2" edge="1">
          <mxGeometry width="50" height="50" relative="1" as="geometry">
            <mxPoint x="549" y="-690" as="sourcePoint" />
            <mxPoint x="609" y="-890" as="targetPoint" />
            <Array as="points" />
          </mxGeometry>
        </mxCell>
        <mxCell id="LUY3sZnG4IFYLeTd67n9-4" value="" style="endArrow=classic;html=1;rounded=0;exitX=0;exitY=0.5;exitDx=0;exitDy=0;" parent="1" source="LUY3sZnG4IFYLeTd67n9-2" edge="1">
          <mxGeometry width="50" height="50" relative="1" as="geometry">
            <mxPoint x="189" y="-860" as="sourcePoint" />
            <mxPoint x="249" y="-890" as="targetPoint" />
            <Array as="points" />
          </mxGeometry>
        </mxCell>
        <mxCell id="LUY3sZnG4IFYLeTd67n9-6" value="" style="endArrow=classic;html=1;rounded=0;exitX=0.5;exitY=1;exitDx=0;exitDy=0;" parent="1" source="qcT07Mh3OJ80x9y92ZIz-56" edge="1">
          <mxGeometry width="50" height="50" relative="1" as="geometry">
            <mxPoint x="429" y="-990" as="sourcePoint" />
            <mxPoint x="429" y="-930" as="targetPoint" />
          </mxGeometry>
        </mxCell>
        <mxCell id="LUY3sZnG4IFYLeTd67n9-8" value="Yes" style="text;strokeColor=none;align=center;fillColor=none;html=1;verticalAlign=middle;whiteSpace=wrap;rounded=0;" parent="1" vertex="1">
          <mxGeometry x="289" y="-920" width="60" height="30" as="geometry" />
        </mxCell>
        <mxCell id="LUY3sZnG4IFYLeTd67n9-9" value="No" style="text;strokeColor=none;align=center;fillColor=none;html=1;verticalAlign=middle;whiteSpace=wrap;rounded=0;" parent="1" vertex="1">
          <mxGeometry x="509" y="-920" width="60" height="30" as="geometry" />
        </mxCell>
        <mxCell id="LUY3sZnG4IFYLeTd67n9-10" value="Recipe(s)&lt;br&gt;found" style="rhombus;whiteSpace=wrap;html=1;" parent="1" vertex="1">
          <mxGeometry x="279" y="-130" width="120" height="80" as="geometry" />
        </mxCell>
        <mxCell id="LUY3sZnG4IFYLeTd67n9-12" value="Display the recipes" style="rounded=1;whiteSpace=wrap;html=1;" parent="1" vertex="1">
          <mxGeometry x="279" y="-10" width="120" height="60" as="geometry" />
        </mxCell>
        <mxCell id="LUY3sZnG4IFYLeTd67n9-13" value="" style="endArrow=classic;html=1;rounded=0;exitX=0;exitY=0.5;exitDx=0;exitDy=0;entryX=1;entryY=0.5;entryDx=0;entryDy=0;" parent="1" source="qcT07Mh3OJ80x9y92ZIz-48" target="qcT07Mh3OJ80x9y92ZIz-36" edge="1">
          <mxGeometry width="50" height="50" relative="1" as="geometry">
            <mxPoint x="549" y="10" as="sourcePoint" />
            <mxPoint x="449" y="-200" as="targetPoint" />
            <Array as="points">
              <mxPoint x="529" y="-40" />
              <mxPoint x="529" y="-200" />
            </Array>
          </mxGeometry>
        </mxCell>
        <mxCell id="LUY3sZnG4IFYLeTd67n9-14" value="Yes" style="text;strokeColor=none;align=center;fillColor=none;html=1;verticalAlign=middle;whiteSpace=wrap;rounded=0;" parent="1" vertex="1">
          <mxGeometry x="719" y="-150" width="60" height="30" as="geometry" />
        </mxCell>
        <mxCell id="LUY3sZnG4IFYLeTd67n9-17" value="Use of selectors" style="rhombus;whiteSpace=wrap;html=1;" parent="1" vertex="1">
          <mxGeometry x="279" y="110" width="120" height="80" as="geometry" />
        </mxCell>
        <mxCell id="LUY3sZnG4IFYLeTd67n9-18" value="No" style="text;strokeColor=none;align=center;fillColor=none;html=1;verticalAlign=middle;whiteSpace=wrap;rounded=0;" parent="1" vertex="1">
          <mxGeometry x="189" y="-120" width="60" height="30" as="geometry" />
        </mxCell>
        <mxCell id="LUY3sZnG4IFYLeTd67n9-19" value="Use of selectors" style="rhombus;whiteSpace=wrap;html=1;" parent="1" vertex="1">
          <mxGeometry x="609" y="-930" width="120" height="80" as="geometry" />
        </mxCell>
        <mxCell id="LUY3sZnG4IFYLeTd67n9-20" value="1 or more characters entered" style="rounded=1;whiteSpace=wrap;html=1;" parent="1" vertex="1">
          <mxGeometry x="609" y="-720" width="120" height="60" as="geometry" />
        </mxCell>
        <mxCell id="LUY3sZnG4IFYLeTd67n9-21" value="Recipes file is loaded" style="rounded=1;whiteSpace=wrap;html=1;" parent="1" vertex="1">
          <mxGeometry x="369" y="-1100" width="120" height="60" as="geometry" />
        </mxCell>
        <mxCell id="LUY3sZnG4IFYLeTd67n9-22" value="search in fields:&lt;br&gt;- name, &lt;br&gt;- description&lt;br&gt;- ingredients" style="rounded=1;whiteSpace=wrap;html=1;" parent="1" vertex="1">
          <mxGeometry x="129" y="-780" width="120" height="60" as="geometry" />
        </mxCell>
        <mxCell id="LUY3sZnG4IFYLeTd67n9-23" value="" style="endArrow=classic;html=1;rounded=0;exitX=0.5;exitY=1;exitDx=0;exitDy=0;" parent="1" target="LUY3sZnG4IFYLeTd67n9-22" edge="1">
          <mxGeometry width="50" height="50" relative="1" as="geometry">
            <mxPoint x="189" y="-860" as="sourcePoint" />
            <mxPoint x="349" y="-720" as="targetPoint" />
          </mxGeometry>
        </mxCell>
        <mxCell id="LUY3sZnG4IFYLeTd67n9-24" value="Display message no recipes found and invite to use selectors" style="rounded=1;whiteSpace=wrap;html=1;" parent="1" vertex="1">
          <mxGeometry x="109" y="-10" width="120" height="60" as="geometry" />
        </mxCell>
        <mxCell id="LUY3sZnG4IFYLeTd67n9-25" value="" style="endArrow=classic;html=1;rounded=0;exitX=0.5;exitY=1;exitDx=0;exitDy=0;entryX=0;entryY=0.5;entryDx=0;entryDy=0;" parent="1" source="LUY3sZnG4IFYLeTd67n9-24" target="LUY3sZnG4IFYLeTd67n9-17" edge="1">
          <mxGeometry width="50" height="50" relative="1" as="geometry">
            <mxPoint x="279" y="60" as="sourcePoint" />
            <mxPoint x="159" y="120" as="targetPoint" />
            <Array as="points">
              <mxPoint x="169" y="150" />
            </Array>
          </mxGeometry>
        </mxCell>
        <mxCell id="LUY3sZnG4IFYLeTd67n9-27" value="" style="endArrow=classic;html=1;rounded=0;exitX=0.5;exitY=1;exitDx=0;exitDy=0;entryX=0.5;entryY=0;entryDx=0;entryDy=0;" parent="1" target="LUY3sZnG4IFYLeTd67n9-24" edge="1">
          <mxGeometry width="50" height="50" relative="1" as="geometry">
            <mxPoint x="279" y="-90" as="sourcePoint" />
            <mxPoint x="164" y="-90" as="targetPoint" />
            <Array as="points">
              <mxPoint x="169" y="-90" />
            </Array>
          </mxGeometry>
        </mxCell>
        <mxCell id="qcT07Mh3OJ80x9y92ZIz-5" value="" style="endArrow=classic;html=1;rounded=0;exitX=0.5;exitY=1;exitDx=0;exitDy=0;" parent="1" source="LUY3sZnG4IFYLeTd67n9-19" edge="1">
          <mxGeometry width="50" height="50" relative="1" as="geometry">
            <mxPoint x="369" y="-680" as="sourcePoint" />
            <mxPoint x="669" y="-830" as="targetPoint" />
          </mxGeometry>
        </mxCell>
        <mxCell id="qcT07Mh3OJ80x9y92ZIz-7" value="Search with &lt;br&gt;input field" style="rhombus;whiteSpace=wrap;html=1;" parent="1" vertex="1">
          <mxGeometry x="609" y="-830" width="120" height="80" as="geometry" />
        </mxCell>
        <mxCell id="qcT07Mh3OJ80x9y92ZIz-8" value="" style="endArrow=classic;html=1;rounded=0;exitX=0.5;exitY=1;exitDx=0;exitDy=0;" parent="1" source="qcT07Mh3OJ80x9y92ZIz-7" edge="1">
          <mxGeometry width="50" height="50" relative="1" as="geometry">
            <mxPoint x="679" y="-860" as="sourcePoint" />
            <mxPoint x="669" y="-720" as="targetPoint" />
            <Array as="points">
              <mxPoint x="669" y="-740" />
            </Array>
          </mxGeometry>
        </mxCell>
        <mxCell id="qcT07Mh3OJ80x9y92ZIz-9" value="Dropdown list updated with item starting with entered characters" style="rounded=1;whiteSpace=wrap;html=1;" parent="1" vertex="1">
          <mxGeometry x="609" y="-630" width="120" height="60" as="geometry" />
        </mxCell>
        <mxCell id="qcT07Mh3OJ80x9y92ZIz-10" value="Item found" style="rhombus;whiteSpace=wrap;html=1;" parent="1" vertex="1">
          <mxGeometry x="609" y="-540" width="120" height="80" as="geometry" />
        </mxCell>
        <mxCell id="qcT07Mh3OJ80x9y92ZIz-11" value="" style="endArrow=classic;html=1;rounded=0;exitX=0.5;exitY=1;exitDx=0;exitDy=0;" parent="1" edge="1">
          <mxGeometry width="50" height="50" relative="1" as="geometry">
            <mxPoint x="668.5" y="-660" as="sourcePoint" />
            <mxPoint x="668.5" y="-630" as="targetPoint" />
            <Array as="points">
              <mxPoint x="668.5" y="-650" />
            </Array>
          </mxGeometry>
        </mxCell>
        <mxCell id="qcT07Mh3OJ80x9y92ZIz-12" value="Click on item&amp;nbsp;" style="rounded=1;whiteSpace=wrap;html=1;" parent="1" vertex="1">
          <mxGeometry x="609" y="-430" width="120" height="60" as="geometry" />
        </mxCell>
        <mxCell id="qcT07Mh3OJ80x9y92ZIz-13" value="Yes" style="text;strokeColor=none;align=center;fillColor=none;html=1;verticalAlign=middle;whiteSpace=wrap;rounded=0;" parent="1" vertex="1">
          <mxGeometry x="659" y="-750" width="60" height="30" as="geometry" />
        </mxCell>
        <mxCell id="qcT07Mh3OJ80x9y92ZIz-14" value="" style="endArrow=classic;html=1;rounded=0;exitX=0;exitY=0.5;exitDx=0;exitDy=0;" parent="1" edge="1">
          <mxGeometry width="50" height="50" relative="1" as="geometry">
            <mxPoint x="609" y="-790" as="sourcePoint" />
            <mxPoint x="529" y="-790" as="targetPoint" />
            <Array as="points" />
          </mxGeometry>
        </mxCell>
        <mxCell id="qcT07Mh3OJ80x9y92ZIz-15" value="No" style="text;strokeColor=none;align=center;fillColor=none;html=1;verticalAlign=middle;whiteSpace=wrap;rounded=0;" parent="1" vertex="1">
          <mxGeometry x="539" y="-820" width="60" height="30" as="geometry" />
        </mxCell>
        <mxCell id="qcT07Mh3OJ80x9y92ZIz-17" value="Select an item in dropdown list" style="rounded=1;whiteSpace=wrap;html=1;" parent="1" vertex="1">
          <mxGeometry x="409" y="-820" width="120" height="60" as="geometry" />
        </mxCell>
        <mxCell id="qcT07Mh3OJ80x9y92ZIz-18" value="" style="endArrow=classic;html=1;rounded=0;exitX=0.5;exitY=1;exitDx=0;exitDy=0;" parent="1" edge="1">
          <mxGeometry width="50" height="50" relative="1" as="geometry">
            <mxPoint x="668.5" y="-570" as="sourcePoint" />
            <mxPoint x="668.5" y="-540" as="targetPoint" />
            <Array as="points">
              <mxPoint x="668.5" y="-560" />
            </Array>
          </mxGeometry>
        </mxCell>
        <mxCell id="qcT07Mh3OJ80x9y92ZIz-19" value="" style="endArrow=none;html=1;rounded=0;" parent="1" edge="1">
          <mxGeometry width="50" height="50" relative="1" as="geometry">
            <mxPoint x="469" y="-400" as="sourcePoint" />
            <mxPoint x="469" y="-760" as="targetPoint" />
          </mxGeometry>
        </mxCell>
        <mxCell id="qcT07Mh3OJ80x9y92ZIz-20" value="" style="endArrow=classic;html=1;rounded=0;" parent="1" edge="1">
          <mxGeometry width="50" height="50" relative="1" as="geometry">
            <mxPoint x="469" y="-400" as="sourcePoint" />
            <mxPoint x="609" y="-400.5" as="targetPoint" />
            <Array as="points" />
          </mxGeometry>
        </mxCell>
        <mxCell id="qcT07Mh3OJ80x9y92ZIz-21" value="" style="endArrow=classic;html=1;rounded=0;exitX=0.5;exitY=1;exitDx=0;exitDy=0;" parent="1" edge="1">
          <mxGeometry width="50" height="50" relative="1" as="geometry">
            <mxPoint x="668.5" y="-460" as="sourcePoint" />
            <mxPoint x="668.5" y="-430" as="targetPoint" />
            <Array as="points">
              <mxPoint x="668.5" y="-450" />
            </Array>
          </mxGeometry>
        </mxCell>
        <mxCell id="qcT07Mh3OJ80x9y92ZIz-23" value="create/display tag /&lt;br&gt;flag item in list as selected" style="rounded=1;whiteSpace=wrap;html=1;" parent="1" vertex="1">
          <mxGeometry x="609" y="-340" width="120" height="60" as="geometry" />
        </mxCell>
        <mxCell id="qcT07Mh3OJ80x9y92ZIz-24" value="" style="endArrow=classic;html=1;rounded=0;exitX=0.5;exitY=1;exitDx=0;exitDy=0;" parent="1" edge="1">
          <mxGeometry width="50" height="50" relative="1" as="geometry">
            <mxPoint x="668.5" y="-370" as="sourcePoint" />
            <mxPoint x="668.5" y="-340" as="targetPoint" />
            <Array as="points">
              <mxPoint x="668.5" y="-360" />
            </Array>
          </mxGeometry>
        </mxCell>
        <mxCell id="qcT07Mh3OJ80x9y92ZIz-27" value="Select a new tag" style="rhombus;whiteSpace=wrap;html=1;" parent="1" vertex="1">
          <mxGeometry x="609" y="-165" width="120" height="80" as="geometry" />
        </mxCell>
        <mxCell id="qcT07Mh3OJ80x9y92ZIz-28" value="" style="endArrow=classic;html=1;rounded=0;entryX=1;entryY=0.5;entryDx=0;entryDy=0;" parent="1" target="qcT07Mh3OJ80x9y92ZIz-7" edge="1">
          <mxGeometry width="50" height="50" relative="1" as="geometry">
            <mxPoint x="769" y="-770" as="sourcePoint" />
            <mxPoint x="769" y="-770" as="targetPoint" />
            <Array as="points" />
          </mxGeometry>
        </mxCell>
        <mxCell id="qcT07Mh3OJ80x9y92ZIz-30" value="" style="endArrow=none;html=1;rounded=0;exitX=1;exitY=0.5;exitDx=0;exitDy=0;" parent="1" edge="1" source="qcT07Mh3OJ80x9y92ZIz-27">
          <mxGeometry width="50" height="50" relative="1" as="geometry">
            <mxPoint x="769" y="-120" as="sourcePoint" />
            <mxPoint x="769" y="-770" as="targetPoint" />
            <Array as="points">
              <mxPoint x="770" y="-125" />
            </Array>
          </mxGeometry>
        </mxCell>
        <mxCell id="qcT07Mh3OJ80x9y92ZIz-31" value="" style="endArrow=classic;html=1;rounded=0;exitX=0.5;exitY=1;exitDx=0;exitDy=0;" parent="1" edge="1">
          <mxGeometry width="50" height="50" relative="1" as="geometry">
            <mxPoint x="668.5" y="-280" as="sourcePoint" />
            <mxPoint x="669" y="-250" as="targetPoint" />
            <Array as="points">
              <mxPoint x="668.5" y="-270" />
            </Array>
          </mxGeometry>
        </mxCell>
        <mxCell id="qcT07Mh3OJ80x9y92ZIz-33" value="" style="endArrow=classic;html=1;rounded=0;" parent="1" edge="1">
          <mxGeometry width="50" height="50" relative="1" as="geometry">
            <mxPoint x="189" y="-200" as="sourcePoint" />
            <mxPoint x="269" y="-200.5" as="targetPoint" />
            <Array as="points">
              <mxPoint x="259" y="-200.5" />
            </Array>
          </mxGeometry>
        </mxCell>
        <mxCell id="eHHMZJ-YNDrtGn9R5DxM-10" value="" style="edgeStyle=orthogonalEdgeStyle;rounded=0;orthogonalLoop=1;jettySize=auto;html=1;" edge="1" parent="1" source="qcT07Mh3OJ80x9y92ZIz-34" target="LUY3sZnG4IFYLeTd67n9-14">
          <mxGeometry relative="1" as="geometry" />
        </mxCell>
        <mxCell id="qcT07Mh3OJ80x9y92ZIz-34" value="No" style="text;strokeColor=none;align=center;fillColor=none;html=1;verticalAlign=middle;whiteSpace=wrap;rounded=0;" parent="1" vertex="1">
          <mxGeometry x="669" y="-100" width="60" height="30" as="geometry" />
        </mxCell>
        <mxCell id="qcT07Mh3OJ80x9y92ZIz-47" value="" style="edgeStyle=orthogonalEdgeStyle;rounded=0;orthogonalLoop=1;jettySize=auto;html=1;" parent="1" source="qcT07Mh3OJ80x9y92ZIz-35" edge="1">
          <mxGeometry relative="1" as="geometry">
            <mxPoint x="669" y="-165" as="targetPoint" />
          </mxGeometry>
        </mxCell>
        <mxCell id="qcT07Mh3OJ80x9y92ZIz-35" value="Update selectors with remaining item according to selected recipe(s)&amp;nbsp;" style="rounded=1;whiteSpace=wrap;html=1;" parent="1" vertex="1">
          <mxGeometry x="609" y="-250" width="120" height="65" as="geometry" />
        </mxCell>
        <mxCell id="qcT07Mh3OJ80x9y92ZIz-36" value="retreive recipes according criterias&lt;br&gt;main search bar And / Or tags" style="rounded=1;whiteSpace=wrap;html=1;" parent="1" vertex="1">
          <mxGeometry x="269" y="-235" width="150" height="70" as="geometry" />
        </mxCell>
        <mxCell id="qcT07Mh3OJ80x9y92ZIz-37" value="Yes" style="text;strokeColor=none;align=center;fillColor=none;html=1;verticalAlign=middle;whiteSpace=wrap;rounded=0;" parent="1" vertex="1">
          <mxGeometry x="423" y="120" width="60" height="30" as="geometry" />
        </mxCell>
        <mxCell id="qcT07Mh3OJ80x9y92ZIz-38" value="" style="endArrow=classic;html=1;rounded=0;exitX=1;exitY=0.5;exitDx=0;exitDy=0;" parent="1" source="LUY3sZnG4IFYLeTd67n9-17" edge="1">
          <mxGeometry width="50" height="50" relative="1" as="geometry">
            <mxPoint x="789" y="121" as="sourcePoint" />
            <mxPoint x="729" y="-890" as="targetPoint" />
            <Array as="points">
              <mxPoint x="789" y="150" />
              <mxPoint x="789" y="-890" />
            </Array>
          </mxGeometry>
        </mxCell>
        <mxCell id="qcT07Mh3OJ80x9y92ZIz-40" value="" style="endArrow=none;html=1;rounded=0;" parent="1" edge="1">
          <mxGeometry width="50" height="50" relative="1" as="geometry">
            <mxPoint x="188" y="-200" as="sourcePoint" />
            <mxPoint x="188" y="-720" as="targetPoint" />
          </mxGeometry>
        </mxCell>
        <mxCell id="qcT07Mh3OJ80x9y92ZIz-42" value="" style="endArrow=classic;html=1;rounded=0;exitX=0.5;exitY=1;exitDx=0;exitDy=0;" parent="1" edge="1">
          <mxGeometry width="50" height="50" relative="1" as="geometry">
            <mxPoint x="668.5" y="-85" as="sourcePoint" />
            <mxPoint x="669" y="-70" as="targetPoint" />
            <Array as="points">
              <mxPoint x="668.5" y="-75" />
            </Array>
          </mxGeometry>
        </mxCell>
        <mxCell id="qcT07Mh3OJ80x9y92ZIz-46" value="" style="endArrow=classic;html=1;rounded=0;exitX=0.5;exitY=1;exitDx=0;exitDy=0;entryX=0.5;entryY=0;entryDx=0;entryDy=0;entryPerimeter=0;" parent="1" target="LUY3sZnG4IFYLeTd67n9-10" edge="1">
          <mxGeometry width="50" height="50" relative="1" as="geometry">
            <mxPoint x="338.5" y="-165" as="sourcePoint" />
            <mxPoint x="339" y="-135" as="targetPoint" />
            <Array as="points">
              <mxPoint x="338.5" y="-155" />
            </Array>
          </mxGeometry>
        </mxCell>
        <mxCell id="qcT07Mh3OJ80x9y92ZIz-48" value="Remove a tag and unflag item in dropdown list" style="rounded=1;whiteSpace=wrap;html=1;" parent="1" vertex="1">
          <mxGeometry x="609" y="-70" width="120" height="60" as="geometry" />
        </mxCell>
        <mxCell id="qcT07Mh3OJ80x9y92ZIz-49" value="" style="endArrow=classic;html=1;rounded=0;exitX=0;exitY=0.5;exitDx=0;exitDy=0;entryX=0.5;entryY=0;entryDx=0;entryDy=0;" parent="1" source="qcT07Mh3OJ80x9y92ZIz-35" target="qcT07Mh3OJ80x9y92ZIz-36" edge="1">
          <mxGeometry width="50" height="50" relative="1" as="geometry">
            <mxPoint x="509" y="-290" as="sourcePoint" />
            <mxPoint x="349" y="-240" as="targetPoint" />
            <Array as="points">
              <mxPoint x="569" y="-197" />
              <mxPoint x="569" y="-290" />
              <mxPoint x="399" y="-290" />
              <mxPoint x="344" y="-290" />
              <mxPoint x="344" y="-260" />
            </Array>
          </mxGeometry>
        </mxCell>
        <mxCell id="qcT07Mh3OJ80x9y92ZIz-51" value="" style="endArrow=classic;html=1;rounded=0;exitX=0.5;exitY=1;exitDx=0;exitDy=0;entryX=0.5;entryY=0;entryDx=0;entryDy=0;" parent="1" target="LUY3sZnG4IFYLeTd67n9-12" edge="1">
          <mxGeometry width="50" height="50" relative="1" as="geometry">
            <mxPoint x="338.5" y="-50" as="sourcePoint" />
            <mxPoint x="339" y="-15" as="targetPoint" />
            <Array as="points">
              <mxPoint x="338.5" y="-40" />
            </Array>
          </mxGeometry>
        </mxCell>
        <mxCell id="qcT07Mh3OJ80x9y92ZIz-53" value="" style="endArrow=classic;html=1;rounded=0;exitX=0.5;exitY=1;exitDx=0;exitDy=0;entryX=0.5;entryY=0;entryDx=0;entryDy=0;" parent="1" target="LUY3sZnG4IFYLeTd67n9-17" edge="1">
          <mxGeometry width="50" height="50" relative="1" as="geometry">
            <mxPoint x="338.5" y="50" as="sourcePoint" />
            <mxPoint x="339" y="100" as="targetPoint" />
            <Array as="points">
              <mxPoint x="338.5" y="60" />
            </Array>
          </mxGeometry>
        </mxCell>
        <mxCell id="qcT07Mh3OJ80x9y92ZIz-54" value="" style="endArrow=classic;html=1;rounded=0;exitX=0.5;exitY=1;exitDx=0;exitDy=0;" parent="1" edge="1">
          <mxGeometry width="50" height="50" relative="1" as="geometry">
            <mxPoint x="428.5" y="-1120" as="sourcePoint" />
            <mxPoint x="429" y="-1100" as="targetPoint" />
          </mxGeometry>
        </mxCell>
        <mxCell id="qcT07Mh3OJ80x9y92ZIz-56" value="Dropdown list selectors are updated with corresponding items" style="rounded=1;whiteSpace=wrap;html=1;" parent="1" vertex="1">
          <mxGeometry x="369" y="-1020" width="120" height="60" as="geometry" />
        </mxCell>
        <mxCell id="qcT07Mh3OJ80x9y92ZIz-57" value="" style="endArrow=classic;html=1;rounded=0;exitX=0.5;exitY=1;exitDx=0;exitDy=0;" parent="1" edge="1">
          <mxGeometry width="50" height="50" relative="1" as="geometry">
            <mxPoint x="428.5" y="-1040" as="sourcePoint" />
            <mxPoint x="429" y="-1020" as="targetPoint" />
          </mxGeometry>
        </mxCell>
        <mxCell id="qcT07Mh3OJ80x9y92ZIz-58" value="" style="endArrow=classic;html=1;rounded=0;exitX=0.5;exitY=1;exitDx=0;exitDy=0;entryX=0.5;entryY=0;entryDx=0;entryDy=0;" parent="1" edge="1">
          <mxGeometry width="50" height="50" relative="1" as="geometry">
            <mxPoint x="339" y="190" as="sourcePoint" />
            <mxPoint x="339.5" y="250" as="targetPoint" />
            <Array as="points">
              <mxPoint x="339" y="200" />
            </Array>
          </mxGeometry>
        </mxCell>
        <mxCell id="qcT07Mh3OJ80x9y92ZIz-59" value="No" style="text;strokeColor=none;align=center;fillColor=none;html=1;verticalAlign=middle;whiteSpace=wrap;rounded=0;" parent="1" vertex="1">
          <mxGeometry x="329" y="200" width="60" height="30" as="geometry" />
        </mxCell>
        <mxCell id="qcT07Mh3OJ80x9y92ZIz-60" value="Start &lt;br&gt;a new search" style="rhombus;whiteSpace=wrap;html=1;" parent="1" vertex="1">
          <mxGeometry x="279" y="250" width="120" height="80" as="geometry" />
        </mxCell>
        <mxCell id="qcT07Mh3OJ80x9y92ZIz-61" value="All previous selected lists are reset when clicking on logo or in main search bar cross&amp;nbsp;" style="rounded=1;whiteSpace=wrap;html=1;" parent="1" vertex="1">
          <mxGeometry x="59" y="260" width="150" height="60" as="geometry" />
        </mxCell>
        <mxCell id="qcT07Mh3OJ80x9y92ZIz-62" value="" style="endArrow=classic;html=1;rounded=0;exitX=0;exitY=0.5;exitDx=0;exitDy=0;entryX=1;entryY=0.5;entryDx=0;entryDy=0;" parent="1" source="qcT07Mh3OJ80x9y92ZIz-60" target="qcT07Mh3OJ80x9y92ZIz-61" edge="1">
          <mxGeometry width="50" height="50" relative="1" as="geometry">
            <mxPoint x="189" y="370" as="sourcePoint" />
            <mxPoint x="239" y="320" as="targetPoint" />
          </mxGeometry>
        </mxCell>
        <mxCell id="qcT07Mh3OJ80x9y92ZIz-63" value="" style="endArrow=classic;html=1;rounded=0;" parent="1" target="qcT07Mh3OJ80x9y92ZIz-64" edge="1">
          <mxGeometry width="50" height="50" relative="1" as="geometry">
            <mxPoint x="399" y="290" as="sourcePoint" />
            <mxPoint x="459" y="290" as="targetPoint" />
          </mxGeometry>
        </mxCell>
        <mxCell id="qcT07Mh3OJ80x9y92ZIz-64" value="End" style="rounded=1;whiteSpace=wrap;html=1;" parent="1" vertex="1">
          <mxGeometry x="469" y="260" width="120" height="60" as="geometry" />
        </mxCell>
        <mxCell id="qcT07Mh3OJ80x9y92ZIz-65" value="Yes" style="text;strokeColor=none;align=center;fillColor=none;html=1;verticalAlign=middle;whiteSpace=wrap;rounded=0;" parent="1" vertex="1">
          <mxGeometry x="399" y="260" width="60" height="30" as="geometry" />
        </mxCell>
        <mxCell id="qcT07Mh3OJ80x9y92ZIz-66" value="No" style="text;strokeColor=none;align=center;fillColor=none;html=1;verticalAlign=middle;whiteSpace=wrap;rounded=0;" parent="1" vertex="1">
          <mxGeometry x="219" y="260" width="60" height="30" as="geometry" />
        </mxCell>
        <mxCell id="qcT07Mh3OJ80x9y92ZIz-67" value="" style="endArrow=classic;html=1;rounded=0;entryX=0;entryY=0.5;entryDx=0;entryDy=0;exitX=0;exitY=0.5;exitDx=0;exitDy=0;" parent="1" target="qcT07Mh3OJ80x9y92ZIz-56" edge="1" source="qcT07Mh3OJ80x9y92ZIz-61">
          <mxGeometry width="50" height="50" relative="1" as="geometry">
            <mxPoint x="59" y="320" as="sourcePoint" />
            <mxPoint x="49" y="-750" as="targetPoint" />
            <Array as="points">
              <mxPoint x="40" y="290" />
              <mxPoint x="39" y="-990" />
            </Array>
          </mxGeometry>
        </mxCell>
        <mxCell id="eHHMZJ-YNDrtGn9R5DxM-2" value="" style="edgeStyle=orthogonalEdgeStyle;rounded=0;orthogonalLoop=1;jettySize=auto;html=1;" edge="1" parent="1" source="eHHMZJ-YNDrtGn9R5DxM-1" target="LUY3sZnG4IFYLeTd67n9-22">
          <mxGeometry relative="1" as="geometry" />
        </mxCell>
        <mxCell id="eHHMZJ-YNDrtGn9R5DxM-1" value="3 characters &lt;br&gt;entered" style="rhombus;whiteSpace=wrap;html=1;" vertex="1" parent="1">
          <mxGeometry x="129" y="-930" width="120" height="80" as="geometry" />
        </mxCell>
        <mxCell id="eHHMZJ-YNDrtGn9R5DxM-3" value="" style="endArrow=classic;html=1;rounded=0;entryX=0.5;entryY=0;entryDx=0;entryDy=0;" edge="1" parent="1" target="eHHMZJ-YNDrtGn9R5DxM-1">
          <mxGeometry width="50" height="50" relative="1" as="geometry">
            <mxPoint x="129" y="-890" as="sourcePoint" />
            <mxPoint x="179" y="-940" as="targetPoint" />
            <Array as="points">
              <mxPoint x="69" y="-890" />
              <mxPoint x="69" y="-960" />
              <mxPoint x="189" y="-960" />
            </Array>
          </mxGeometry>
        </mxCell>
        <mxCell id="eHHMZJ-YNDrtGn9R5DxM-4" value="No" style="text;strokeColor=none;align=center;fillColor=none;html=1;verticalAlign=middle;whiteSpace=wrap;rounded=0;" vertex="1" parent="1">
          <mxGeometry x="69" y="-920" width="60" height="30" as="geometry" />
        </mxCell>
        <mxCell id="eHHMZJ-YNDrtGn9R5DxM-5" value="Yes" style="text;strokeColor=none;align=center;fillColor=none;html=1;verticalAlign=middle;whiteSpace=wrap;rounded=0;" vertex="1" parent="1">
          <mxGeometry x="179" y="-830" width="60" height="30" as="geometry" />
        </mxCell>
        <mxCell id="eHHMZJ-YNDrtGn9R5DxM-6" value="Yes" style="text;strokeColor=none;align=center;fillColor=none;html=1;verticalAlign=middle;whiteSpace=wrap;rounded=0;" vertex="1" parent="1">
          <mxGeometry x="340" y="-50" width="60" height="30" as="geometry" />
        </mxCell>
        <mxCell id="eHHMZJ-YNDrtGn9R5DxM-7" value="&lt;b&gt;&lt;font style=&quot;font-size: 23px;&quot;&gt;Les Petits Plats&lt;/font&gt;&lt;/b&gt;" style="text;html=1;align=center;verticalAlign=middle;resizable=0;points=[];autosize=1;strokeColor=none;fillColor=none;" vertex="1" parent="1">
          <mxGeometry x="19" y="-1150" width="190" height="40" as="geometry" />
        </mxCell>
      </root>
    </mxGraphModel>
  </diagram>
</mxfile>
